<svg width="36" height="36" viewBox="0 0 36 36" xmlns="http://www.w3.org/2000/svg">
    <path d="M13.5 4.875c.409 0 .781.221.979.57l.066.137 3 7.5c.184.462.043.982-.333 1.289l-.133.094-2.832 1.698.016.028a15.376 15.376 0 0 0 5.092 5.27l.481.29 1.7-2.83a1.125 1.125 0 0 1 1.226-.515l.156.05 7.5 3c.38.151.643.495.697.893l.01.151v6c0 2.278-1.847 4.125-4.193 4.123C14.256 31.853 4.147 21.744 3.375 9a4.125 4.125 0 0 1 3.874-4.117l.251-.008h6zm-.764 2.248L7.5 7.125c-1.036 0-1.875.84-1.877 1.807.701 11.54 9.904 20.744 21.377 21.443.97 0 1.77-.738 1.865-1.683l.01-.192v-5.238l-5.904-2.363-1.756 2.93a1.125 1.125 0 0 1-1.317.49l-.146-.06a17.625 17.625 0 0 1-8.011-8.011 1.125 1.125 0 0 1 .301-1.373l.13-.09 2.927-1.758-2.363-5.903z" fill="#191E30" fill-rule="nonzero"/>
</svg>
